<svg xmlns="http://www.w3.org/2000/svg" xmlns:xlink="http://www.w3.org/1999/xlink" id="Layer_1" x="0" y="0" version="1.1" viewBox="0 0 200 200.01" xml:space="preserve" style="enable-background:new 0 0 200 200.01"><style type="text/css">.st0{fill:#b3b3b3}</style><path d="M170.33,95.74V0H73.24v18.3h72.01c1.49,0,2.7,1.21,2.7,2.7s-1.21,2.7-2.7,2.7H73.24v9.07v5.3h72.01	c1.49,0,2.7,1.21,2.7,2.7s-1.21,2.7-2.7,2.7H73.24v0.1h-10.8H29.67l0,0v52.17H170.33z M53.62,58.23h91.63c1.49,0,2.7,1.21,2.7,2.7	s-1.21,2.7-2.7,2.7H53.62c-1.49,0-2.7-1.21-2.7-2.7S52.13,58.23,53.62,58.23z M53.62,77.77h91.63c1.49,0,2.7,1.21,2.7,2.7	s-1.21,2.7-2.7,2.7H53.62c-1.49,0-2.7-1.21-2.7-2.7S52.13,77.77,53.62,77.77z" class="st0"/><path d="M19.16,200.01h161.69c10.58,0,19.16-8.58,19.16-19.16v-72.85H78.65v69.54l-25.03-15.02l-25.03,15.02v-69.54H0	v72.85C0,191.44,8.58,200.01,19.16,200.01z" class="st0"/><polygon points="62.44 32.76 62.44 0 29.67 32.76" class="st0"/></svg>